<svg width="258" height="25" viewBox="0 0 258 25" fill="none" xmlns="http://www.w3.org/2000/svg">
<path fill-rule="evenodd" clip-rule="evenodd" d="M47.5221 24.2622L57.6817 24.2622L57.6817 21.391L51.0558 21.391V0.777216L47.5221 0.777216L47.5221 24.299V24.2622Z" fill="white"/>
<path fill-rule="evenodd" clip-rule="evenodd" d="M3.75465 3.79566L3.75465 21.3542H7.32524C11.9265 21.3542 15.3499 17.9308 15.5707 13.1455C15.7916 7.95522 12.3314 3.86928 7.36205 3.83247L3.75465 3.79566ZM0 24.2622L0 0.814026L7.36205 0.814026C14.2824 0.814026 19.1781 5.89384 19.3622 12.2252C19.5462 18.7406 15.0922 24.2622 7.36205 24.2622H0Z" fill="white"/>
<path fill-rule="evenodd" clip-rule="evenodd" d="M212.248 24.2622H215.708V7.03496L231.794 24.2622L234.408 24.2622V0.777216L230.948 0.777216V18.2989L214.53 0.777216L212.248 0.777216V24.2622Z" fill="white"/>
<path d="M77.3016 24.2622L89.4489 24.2622V21.4278H80.9826V13.3663L89.2281 13.3663V10.4951L80.9826 10.4951V3.64842L89.4489 3.64842V0.777216L77.3016 0.777216V24.299V24.2622Z" fill="white"/>
<path d="M247.659 0.777216L245.34 0.777216L235.512 24.2622H239.414L242.027 17.5995H250.899L253.549 24.2622L257.451 24.2622L247.659 0.777216ZM243.353 14.6547L246.518 6.40919L249.684 14.6547L243.353 14.6547Z" fill="white"/>
<path d="M145.327 0.777216L143.008 0.777216L133.18 24.2622H137.081L139.695 17.5995L148.566 17.5995L151.217 24.2622H155.118L145.327 0.777216ZM141.02 14.6547L144.186 6.40919L147.351 14.6547H141.02Z" fill="white"/>
<path d="M201.168 0.777216L198.849 0.777216L189.021 24.2622H192.923L195.536 17.5995H204.407L207.021 24.2622L210.923 24.2622L201.168 0.777216ZM196.861 14.6547L200.027 6.40919L203.193 14.6547H196.861Z" fill="white"/>
<path fill-rule="evenodd" clip-rule="evenodd" d="M180.113 13.4768C182.579 13.4768 186.297 13.5504 186.297 17.3418C186.297 20.802 183.389 21.4646 179.965 21.4646H177.794V13.4768H180.113ZM181.585 24.2622C186.407 24.2622 189.904 22.6057 190.162 17.9308C190.346 15.1332 188.248 12.2252 185.413 11.5258C186.996 10.4583 187.99 9.09634 187.99 7.21901C188.064 1.77109 184.346 0.924457 180.518 0.814026L173.965 0.814026V24.2622H181.585ZM177.794 3.64842L178.383 3.64842C181.217 3.5748 184.309 3.42755 184.309 6.96134C184.309 10.5687 181.401 10.5319 178.346 10.6056H177.794V3.64842Z" fill="white"/>
<path fill-rule="evenodd" clip-rule="evenodd" d="M162.333 13.4768C164.8 13.4768 168.517 13.5504 168.517 17.3418C168.517 20.802 165.609 21.4646 162.186 21.4646H160.014V13.4768L162.333 13.4768ZM163.806 24.2622C168.628 24.2622 172.125 22.6057 172.382 17.9308C172.567 15.1332 170.468 12.2252 167.634 11.5258C169.217 10.4583 170.211 9.09634 170.211 7.21901C170.284 1.77109 166.566 0.924457 162.738 0.814026L156.186 0.814026V24.2622H163.806ZM160.051 3.64842H160.64C163.474 3.5748 166.566 3.42755 166.566 6.96134C166.566 10.5687 163.658 10.5319 160.603 10.6056L160.051 10.6056V3.64842Z" fill="white"/>
<path d="M76.2341 2.65454C75.2034 1.77109 74.7985 1.55023 72.9579 0.814026C71.4487 0.225062 69.6818 -0.0326098 68.2094 0.0410107C66.3689 0.077821 65.3014 0.372303 63.6081 1.0717C58.2706 3.35393 55.5099 7.8816 56.0252 13.5136C56.4669 18.4461 58.97 21.7959 63.6081 23.8573C65.2646 24.5935 66.3321 24.8879 68.1726 24.9616C70.0499 25.072 71.191 24.9247 72.9579 24.299C74.3199 23.8204 75.1298 23.526 76.2341 22.6057V19.3664C76.2341 19.3664 74.3199 20.6548 72.9579 21.1701C71.191 21.7959 70.0499 22.0535 68.1726 21.8327C66.2585 21.6118 65.1542 21.1701 63.6081 20.1026C62.3198 19.2192 61.6572 18.5566 60.8842 17.2314C60.148 15.943 59.9639 15.0964 59.8535 13.624C59.559 10.0166 60.5897 7.25582 63.6081 5.08402C65.1542 3.97971 66.2585 3.53799 68.1726 3.35393C70.0499 3.16988 71.191 3.42755 72.9579 4.05333C74.3199 4.53186 75.0193 5.04721 76.2341 5.78341V2.65454Z" fill="white"/>
<path d="M134.1 6.07789C132.738 2.65454 128.247 0.114631 123.388 0.00420043C116.136 -0.179851 110.173 5.70979 110.284 12.7037C110.394 19.5873 116.284 25.1088 123.388 24.9984C133.989 24.8511 135.94 16.1639 135.204 12.262L123.867 12.262V15.1332L131.413 15.1332C131.008 19.9554 127.511 21.5382 123.388 21.7959C118.198 22.164 114.075 17.7099 113.965 12.6669C113.854 7.5503 118.087 3.13307 123.388 3.16988C126.959 3.20669 129.94 5.26807 131.302 7.51349L134.1 6.07789Z" fill="white"/>
<path fill-rule="evenodd" clip-rule="evenodd" d="M46.5282 12.5565C46.5282 9.20677 45.2398 6.15151 42.7367 3.79566C40.2704 1.47661 36.9207 0.225062 33.4973 0.225062C30.0372 0.225062 26.7243 1.51342 24.2948 3.79566C21.7917 6.15151 20.4665 9.20677 20.4665 12.5565C20.4665 15.9062 21.7917 18.9247 24.2948 21.2805C26.7611 23.5996 30.074 24.8879 33.4973 24.8879C36.9207 24.8879 40.2704 23.5996 42.7367 21.2805C45.203 18.9983 46.5282 15.943 46.5282 12.5565ZM33.4973 21.7223C30.9574 21.7223 28.6752 20.802 26.8347 19.0351C25.031 17.2682 24.0739 15.0596 24.0739 12.5933C24.0739 10.127 25.031 7.84479 26.8347 6.07789C28.6016 4.34781 30.9574 3.42755 33.4973 3.42755C36.0372 3.42755 38.3563 4.34781 40.16 6.07789C41.9637 7.80798 42.9208 10.0902 42.9208 12.5933C42.9208 15.0596 41.9637 17.305 40.16 19.0351C38.3195 20.7652 36.0004 21.7223 33.4973 21.7223Z" fill="white"/>
<path d="M104.21 21.7959C104.725 21.3173 105.167 20.7652 105.609 20.1394L105.719 19.9554L104.504 18.667C104.504 18.667 103.363 20.1026 103.106 20.4339C102.774 20.0658 101.228 18.2253 100.897 17.8572C102.296 16.9737 102.922 16.0535 102.922 14.9124C102.922 13.2927 101.744 12.2252 99.9399 12.2252C98.173 12.2252 96.9214 13.3295 96.9214 14.9124C96.9214 15.7222 97.1791 16.3848 97.7681 17.0105C97.7681 17.0105 97.9153 17.1578 98.0625 17.305C96.3325 18.3357 95.4858 19.5136 95.4858 20.9124C95.4858 23.0106 97.0319 24.4462 99.2773 24.4462C100.602 24.4462 101.817 23.9309 102.848 23.0106C103.106 23.3051 103.915 24.2622 103.915 24.2622H106.345C106.345 24.2622 104.468 22.0904 104.21 21.7959ZM99.9399 13.9185C100.639 13.9185 101.081 14.3234 101.081 14.9492C101.081 15.5013 100.75 15.9799 100.087 16.3848C100.087 16.3848 99.9031 16.4952 99.7558 16.5688C99.5718 16.348 99.1668 15.9062 99.1668 15.9062C98.9092 15.6118 98.7987 15.3173 98.7987 14.986C98.8356 14.3602 99.2773 13.9185 99.9399 13.9185ZM99.0196 18.8142C99.0196 18.8142 99.0932 18.7774 99.1668 18.7038C99.4245 18.9983 101.412 21.3542 101.707 21.6854C100.823 22.4217 100.087 22.7529 99.3141 22.7529C98.2098 22.7529 97.4 21.9799 97.4 20.8756C97.4 20.029 97.9889 19.4768 99.0196 18.8142Z" fill="white"/>
</svg>
